<?xml version="1.0" encoding="UTF-8"?>
<svg id="Layer_1" data-name="Layer 1" xmlns="http://www.w3.org/2000/svg" viewBox="0 0 592 592">
  <defs>
    <style>
      .cls-1 {
        fill: #60a0bd;
      }

      .cls-2 {
        fill: #c4efed;
      }

      .cls-3 {
        fill: #68a2b8;
      }

      .cls-4 {
        fill: #d8f6f1;
      }

      .cls-5 {
        fill: #c8f5f5;
      }

      .cls-6 {
        fill: #183c51;
      }

      .cls-7 {
        fill: #58a4c2;
      }

      .cls-8 {
        fill: #eaf9e5;
      }

      .cls-9 {
        fill: #6ba6b6;
      }

      .cls-10 {
        fill: #5aa2c5;
      }

      .cls-11 {
        fill: #57a2c8;
      }

      .cls-12 {
        fill: #66a2bd;
      }

      .cls-13 {
        fill: #4a969c;
      }

      .cls-14 {
        fill: #88b5b7;
      }

      .cls-15 {
        fill: #66a0b6;
      }

      .cls-16 {
        fill: #7dafb7;
      }

      .cls-17 {
        fill: #609fbf;
      }

      .cls-18 {
        fill: #759da6;
      }

      .cls-19 {
        fill: #eefbda;
      }

      .cls-20 {
        fill: #7da8ab;
      }

      .cls-21 {
        fill: #c8ecf7;
      }

      .cls-22 {
        fill: #76a7b2;
      }

      .cls-23 {
        fill: #ebf8de;
      }

      .cls-24 {
        fill: #79a4a8;
      }

      .cls-25 {
        fill: #d0f7f2;
      }

      .cls-26 {
        fill: #35ada6;
      }

      .cls-27 {
        fill: #58a2c8;
      }

      .cls-28 {
        fill: #659eb8;
      }

      .cls-29 {
        fill: #172e42;
      }

      .cls-30 {
        fill: #083847;
      }

      .cls-31 {
        fill: #659eb9;
      }

      .cls-32 {
        fill: #6ba3b3;
      }

      .cls-33 {
        fill: #58a1c7;
      }

      .cls-34 {
        fill: #3aaaa5;
      }

      .cls-35 {
        fill: #75a6b0;
      }

      .cls-36 {
        fill: #57a4c3;
      }

      .cls-37 {
        fill: #e7f6df;
      }

      .cls-38 {
        fill: #0e3b56;
      }

      .cls-39 {
        fill: #0e3746;
      }

      .cls-40 {
        fill: #66a3ba;
      }

      .cls-41 {
        fill: #67a2b7;
      }

      .cls-42 {
        fill: #5ba4bc;
      }

      .cls-43 {
        fill: #cdf5f2;
      }

      .cls-44 {
        fill: #5ea2c0;
      }

      .cls-45 {
        fill: #d3f2ee;
      }

      .cls-46 {
        fill: #274650;
      }

      .cls-47 {
        fill: #eefbdb;
      }

      .cls-48 {
        fill: #4e9398;
      }

      .cls-49 {
        fill: #48a0a2;
      }

      .cls-50 {
        fill: #ddf9ed;
      }

      .cls-51 {
        fill: #5ba6b5;
      }

      .cls-52 {
        fill: #41a5a3;
      }

      .cls-53 {
        fill: #679eb1;
      }

      .cls-54 {
        fill: #16546f;
      }

      .cls-55 {
        fill: #70a2af;
      }

      .cls-56 {
        fill: #529e9d;
      }

      .cls-57 {
        fill: #9fb5ac;
      }

      .cls-58 {
        fill: #58a2c7;
      }

      .cls-59 {
        fill: #72a0b1;
      }

      .cls-60 {
        fill: #103e59;
      }

      .cls-61 {
        fill: #4a989b;
      }

      .cls-62 {
        fill: #def9eb;
      }
    </style>
  </defs>
  <rect class="cls-26" width="592" height="592"/>
  <path class="cls-29" d="M79.15,185.92c1.57-1.1,1.99-.5.79,1.08,1.16.83,1.83,1.79,2,2.9-1.6,2.65-1.63,5.91-.08,9.78-2.26-13.56,14.19-4.57,10.23,3.25-6.31,5.43-7.29,8.36-2.92,8.79l.95,1.25c10.59-3.59,14.56-2.29,11.91,3.89-3.62.99-4.73,2.21-3.33,3.66-4.07,2.19-11.07,3.8-14.74.54,2.53,4.76,8.1,3.6,12.59,2.48,3.37,1.21,6.85,1.12,10.46-.28.13-.85.39-.8.76.06,2.57.07,1.34,2.83.5,4.72.2-2.01,1.03-3.64,2.5-4.87-2.61-1.23-1.97-3.16.88-3.11,6.73-1.38,7.58,2.14,7.56,8.13,2.41,3.59,3.4,7.35,2.98,11.27-3.17,2.11-5.82,4.99-7.95,8.61,5.91,3.6,8.84,8.54,5.7,14.99.33,1.27.88,1.89,1.66,1.87,1.04-3.21,3.87-7.13,6.28-3.06,3.01-.15,4.96,4.45,3.19,6.75,1.4,2.62,1.95,5.23,1.66,7.84,5.09.14,7.48,5,4.1,9.07,1.12.96,2.12,2.13,2.98,3.5.06,11.85.29,14.48.68,7.9.73-2.62,2.88-3.28,6.43-1.96,2.49-7.6,15.3-3.29,8.27,3.18,3.5.3,4.44-.63,2.82-2.81-.23-2.07,1.41-2.66,4.93-1.78,1.18-2.62,3.32-1.58,2.94,1.22,1.29,1.04.96,1.98.46,3.18,6.08.59,11.25,2.49,15.52,5.69,1.36,6.66,1.58,13.2.66,19.61l1.19-1.12c-3.36-2.17-.44-4.6,2.97-4.89.14-8.7,3.46-16.82,7.95-4.32,20.3.22,40.55.09,60.75-.39.43-4.06.84-5.87,4.87-7.3,8.62,1.17,11.75-.92,9.38-6.28.21-.51.56-.94,1.01-1.29,1.67-1.33,24.49-1.67,25.92-.41,4.43,3.91-1.16,5.59-4.48,6.43l-2.67,1.08c-.21,1.91-4.66.84-6.42.04-.31.45-.54.9-.5,1.32.11,1.12,16.3,9.83,19.61,10.78,1.23.67.81,1.8-.08,2.95-2.3,1.67-3.85,2.67-6,.44-4.89.04-8.47-2.29-12.08-5.25-5.43-2.79-7.31-2.99-5.63-.61,8.51,1.78,8.48,5.62,3.49,11.63,1.04,2.6-1.34,3.03-2.77.87-1.99-.79-3.65-2.68-4.98-5.64-3.77-3.63-4.21-3.01-3.04,1.65,3.85-.31,6.23,2.79,3.94,5.94,1.93.13,1.87.88-.06,1.4-.56,1.45-1.92,2.55-4.08,3.3.31,8.87-2.6,8.89-8.66,3.56.84,3.33,1.61,6.55,2.33,9.65,1.93-1.33,4.49-1.78,7.67-1.34,1.64,1.31,4.11,1.63,7.42.96,9.34,3.42,18.51,4.1,27.52,2.04l2.33,1.84c2.97-.37,3.48,4.72.72,5.67-3.08,1.55-27.13,4.11-28.2,3.17-.36-.31-.58-.78-.76-1.29l-3.79,2.21c-3.93-1.24-21.44,3.78-23.38,7.67-.73,1.45-8.81,22.06-7.75,21.6,1.42-2.41,7.85-4.64,8.64-1.98.19.64-.93,1.39-1.76,1.77-.57,1.43-.66,2.76-.26,3.99-2.3,2.52-3.07,5.09-2.31,7.71,0,0,8.16,9.47,24.47,28.41,2.97,1.83,11.04,3.89,9.58-1.3,1.54-2.64,3.89-2.3,7.07,1,4.98-4.86,8.04-3.58,6.34,3.49,10.77.15,19.73.34,29.09,6.83,3.67,1.17,4.41.8,7.72-1.14,7.12-4.19,12.78-9.36,18.34-15.43l5.64,2.23c6.02.29,8.78,1.94,8.28,4.95.12,2.74-.88,2.77-1.99.27-4.72.75-9.4,1.77-14.04,3.06l-1.1,1.73.43,1.25c-6.4,4.64-12.83,9.49-19.26,14.57l-2.22-.59c-2.38,1.19-5.37.8-8.97-1.18-3.99-.8-8.07,0-12.26,2.39l-1.98-1.4c-.32.82-1.26,1.22-2.82,1.21-.82-2.11-2.3-3.83-4.46-5.16-1.18,2.57-3.22,4.57-6.12,6.01-.15,2.32-.62,4.33-1.41,6.04.58,1.9-.19,2.4-1.7,1.1-1.46,2.62-3.46,2.03-3.24-.94l-2.87-.68c-6.17-8.63-15.13-15.09-25.4-17.89l-27.31-5.84c-19.97-6.86-28.79-20.29-35.12-39.89-5.43-8.81-10.94-17.55-16.52-26.22l-1.14-5.99c.39-11.7.39-23.41,0-35.12-6.02-4.89-9.74-12.36-10.34-20.06-.34-.39-8.98-2.16-9.34-1.26-.95,2.36,9.16,45.49,11.26,49.4l17.55,29.22c1.64,2.6,1.45,4.2.43,6.88-.93,2.44-15.18,25.33-16.81,26.94-2.59,2.54-7.03,6.4-10.34,4.08l-.88,1.4c-2.56,1.57-3.04,2.38-1.44,2.43,2.06.52,1.2,2.68-.7,2.41.82,1.21,1.79,1.37,2.76.23-2.65-2.59,1.17-4.55,3.67-.37.45,15.05,1.89,30.13,4.34,45.24l2.34,7.33.35-32.47c2.78-4.13,4.05-1.67,5.48,1.85l2,7.65c-3.91-22.8,2-42.05,8.9-62.85,1.48-1.96,2.29-2.57,4.47-1.29,5.52,3.28,11.55,19.68,12.99,26.25,1.75,14.8,5.02,28.55,17.85,37.64-4.2-7.1-7.4-14.59-9.6-22.49-.87-3.06.62-3.67,3.5-3.66,8.46,10.77,18.26,19.95,29.41,27.55l-4.79-12.68c-2.48-6.07-1.8-9.3,2.04-9.68l39.44,22.82.02,2.33,2.18-.26,11.41,22.74c3.17-.35,9.2-.85,11.02,1.73-.67,6.66-1.82,13.32-3.44,19.99,13.68.12,28.54-4.13,39.52-12.87,11.38-9.07,15.67-20.58,20.11-34.07,8.76-16.67,17.25-33.41,25.47-50.21l2.63-1.73c4.16,4.39,4.85,10.76,3.67,17.15l-16.01,86.41-3.18-27.4-34.55,44.92c-.03,3.44-1.75,6.69-5.17,9.76,2.01-3.47,4.41-5.22,7.19-5.24l1.13-.23c3.2-2.84,7.54-4.13,13.02-3.89,8.37-.98,15.63-6.53,24.1-8.58,7.49.56,15.25,6.32,21.26,10.64l14.18,10.18c2.22.3,14.49,6.69,14.88,7.43,1.35,2.56-4.38,3.48-6.15,3.66l-27.39-.08c-1.16,1.41-3.22,1.84-6.19,1.29,3.19.34,5.87,1.49,8.04,3.45,3.4-.07,6.13.59,8.2,1.99.5.6,2.4.35,2.95,1.73-76.42,37.25-166.29,34.86-240.77-6.56l58.81-45.47c4.18,6.34,8.91,10.13,14.85,13.3l47.49,27.42c-6.57-8.72-13.52-15.92-21.47-22.49l-41.98-34.69-27.95,28.58-31.62,32.19c-18.85-10.78-36.22-23.4-51.71-38.79-10.01-9.94-19.22-19.41-27.26-31.32l16.87-21.79c.02-3,1.27-5.61,3.76-7.84-3.1,1.87-6.51,3.01-10.23,3.4l-20.97,11.73c-25.12-38.02-38.93-81.38-41.55-126.5-3.11-53.59,9.91-105.34,37.48-150.69-1.69-3.47.82-6.69,4.37-4.45Z"/>
  <path class="cls-29" d="M280.98,76.26l-1.31,2.48c-3.59,2.12-10.44,5.24-14.42,6.83-.38.15-.92-.1-1.51-.46l-.95,2c-3.14.72-6.07,2.11-8.8,4.16l28.06-5.16,1.8,1.7c2.68-.64,3.72-.27,3.12,1.12l-.1,2.2-41.38,16.85,1.29,1.8c5.36-.8,10.73-1.87,16.1-3.23,2.21.18,1.31,1.26-2.69,3.24-.31,1.75-1.48,2.98-3.49,3.69-9.8,7.8-20.08,14.59-30.86,20.35l-.08,2.8c-2.07,2.04-3.91,4.29-5.42,6.78-4.58,7.53-5.8,10.47,3.05,5.07,2.24.02,3.77.38,3.62,2.77l-4.76,15.65c4.53-.24,9.27-1.35,14.23-3.34l10.49-1.87,3.22,1.63c-.72-2.96,5.83-3.53,6.64-.71,3.64-.46,3.57,1.34.64,3.25-3.99.24-5.15,1.27-3.48,3.1,6.66-1.25,13.33-1.24,20,.03.35-3.54,2.89-1.59,4.86-.05-.01-.78.21-1.99.7-2,45.62-.65,92.07-.58,137.91.01l3.54,1.81c.14-3,4.93-2.69,5.39.12.83-.83,1.76-1.75,2.9-1.88,10.02-1.08,27.72,7.03,35.82,13.01,12.04,8.89,20.65,21.51,24.78,35.9,1.88.23,3.97-.5,6.28-2.19-4.03-3.82-6.13-8-6.29-12.52,2.63-.79,5.44-1.2,8.43-1.22,4.46-.64,4.54-2.63.22-5.95-2.34-3.49-6.72-10.31-1.94-12.41,4.78,1.67,8.64,1.7,11.57.07-2.34-2.24-9.15-9.04-7.81-12.12,1.25-2.87,7.43-1.84,6.63,1.63,3.29,2.39,6.11,5.56,8.47,9.52l-.86,2.27c55.28,84.44,57.29,194.67,3.11,280.6-2.47,3.92-3.83,7.86-7.76,10.84l-95.48-44.59-14.6-28.75c-1.09-2.15-2.25-4.11-2.14-6.36l-1.4-1.58c6.67-11.74,13.34-23.47,20.01-35.21l2.32-.04,1.56-1.69c5.97,3.06,11.16,3.14,15.56.25l2.28.69c-.38-1.57.42-2.78,2.42-3.63,4.93-7.91,9.52-16.01,13.79-24.3,4.22-12.91,8.95-25.66,14.18-38.24-2.83,2.66-5.93,4.95-9.3,6.86l-2.54-1.02c-4.72,5.1-12.86,8.17-19.79,7.94-1.42,1.2-3.17,1.79-5.24,1.77l-29.29.24-1.49-1.99-4.98,2-49.55.05c.54,2.46.13,4.37-1.23,5.72.6,3.18-3.31,3.53-5.2,1.5-1.61.58-3.45-.15-5.51-2.18-2.06,1.12-4.76,1.08-8.1-.1-5.28-.02-10.18,1.86-14.7,5.66-10.72,3.47-3.01-8.4,2.23-10.89-8.31.38-16.47.41-24.36-1.77,1.01-2.25,3.73-2.96,6.6-3.54-.34-1.4-.77-2.77-1.86-3.73-1.72-1.05-5.11.51-7.25.14-5.59-.96-10.9-.95-15.74,1.85,1.71,2.44,1.34,7.03-1.45,7.2l-9.68.57c-2.28.13-2.66,4.71-2.68,7.15l-7.39.54h-56.82c-1.61-1.6-1.89-4.63-2.51-7.62-2.07,4.92-1.56,9.54-2.14,10.82-.94,2.08-6.23.6-4.77,3.99l-.14,1.11c1.52.96,3.06,2.18,5.44,1.69-.11-2.72-.4-4.72,1.04-7.2,1.54,1.33,2.6,2.18,4.86,2.92l-.13,30.65c-2.24.18-3.99.49-4.99,1.1-1.3.8-2.64,10,1.9,12.77-.56,1.94-1.8,3.03-4.34,4.44-4.67-5.95-4.79-16.62-1.46-17.99.63-.26,1.76.07,3.17.33l-.27-18.97-5.62-2.05c-1.77-2.12-.66-5.45-.26-7.45-.15,0-.3-.09-.4-.24-3.39-4.86-.21-12.5-2.36-18.63-3.74-4.6-11.46-2.26-17.06-6.11l2.78-3.73.27-1.31c85.78.68,172.02.71,258.71.08,64.36-4.51,67.59-102.5,2.12-110.71l-251.57-.11c-40.2,3.79-57.65,40.05-46.41,76.51l-1.14,2.61c-.96-.24-2.7.24-3.28,1.13-.49.75-.79,2.92-1.91,3.56-2.59,1.48-4.24-1.36-4.69-3.13-.52-2,1.17-3.89,1.79-5.45-.91-2.18-2.53-5.64-4.69-6.99-.93-.64-4.15-2.12-2.75-3.76,1.83-2.13,3.59-4.36,5.01-6.83.53-.92,3.04-1.37,3.4-2.28,1.75-4.53-5.58-5.89-3.46-15.95-2.77.16-4.79-.47-5.63-2.1-1.5-1.54-1.3-3.47.58-5.78-.49-.64-.84-1.25-.73-1.74.97-4.22,3.8-9.45,6.08-13.2,3.37-5.55,9.1-14.39,15.5-15.06.95-3.71,3.79-6.52,8.53-8.42,5.99-3.65,12.25-5.91,18.8-6.77.11-19.69,8.56-39.49,21.16-54.57,2.63-3.14,13.56-15.43,16.39-14.25,2.48,1.03,1.78,4.46.3,6.43,14.11-13.66,28.3-27.27,46.43-36.3,1.39-.56,3.09-.92,4.44-.3-.73-2.77,3.45-2.75,4.75-.87l1-1.25,6.33.45c1.26-4.28,16.46-5,12.86.71l18.68-.66,2.41,2c-4.56,2.3-9.28,4.23-14.18,5.79Z"/>
  <path class="cls-47" d="M438.05,357.15l-2.39.71c-4.78-3.66-8.1-8.73-9.96-15.19l-1.8.47.07,6.78c-.24,2.7-1.34,4.07-3.3,4.09,2.61,1.51.78,4.5-2.02,3.9l-20.93,36.83c-2.25,3.96-5.39,7.52-6.65,11.96-5.31,18.58-21.36,35.85-29.83,62.46-8.4,26.38-32.77,38.46-60.42,38.79l4.5-22.28c-3.59.11-7.96.86-9.57-1.8l-8.83-19.56c-.86-2.43-.69-5.66,2.29-5.16.43-.29,1.23-.88,1.7-1.1-.24-.74-.54-1.85-.07-2.18,2.09-1.46,7.52-3.83,10.07-4.79,2.06-1.2,2.77-1.61,4.84-.09,2.35-2.02,3.08-1.03,4.22,1.43l.21,30.21c2.41.47,4.41,1.43,5.99,2.86l5.28,12.57c2.66-.76,4.83-.77,6.5-.02,5.64-3.61,10.7-7.79,15.18-12.52,1.58-2.8,2.58-5.83,2.98-9.07-1.15,1.85-2.56,2.34-4.24,1.48.23,5.24-8.29,6.41-8.89-.09l1.1-15.15c-5.35.85-12.65-2.97-11.11-8.68.34-1.25,4.14-5.19,5.96-3.86,2.69-3.13,18.78-14.54,21.05-15.23-.27-2.83,1.21-2.7,3.51-2.07,3.78-1.45,7.66-2.36,11.63-2.72.61.16,1.5-.25,1.99-.27.95-1.49,1.88-2.74,2.77-3.75l-10.74-3.31c-2.31-.95-3.48-3.07-3.52-6.37-5.08,11.54-18.53,25.86-32.16,20.99-3.64-1.3-11.08-5.19-7.88-9.3-15.84-2.3-31.41-5.75-46.71-10.35l-.79-2.31c-3.18-1.86-4-3.29-2.46-4.31.13-4.16-.49-7.84-1.84-11.03-3.2.67-3.44-3.76-2.88-6.18-1.68-2.72-1.95-4.69-.8-5.91-1.7-1.3-1.38-2.2.76-2.07l1.49-.89c6.19,3.98,12.15,4.83,17.89,2.57,13.21-1.86,26.43-2.9,39.69-3.13,3.8,3.2,7.66,6.19,11.58,8.98,3.34-.21,6.06-3.32.4-.78-3.84-2.66-9.57-6.85-10.94-11.03-2.45-1.7-4.43-3.9-5.95-6.58l-10.85-3.28c-1.75,3.02-7.14.87-9.47-.87-5.88-.48-11.19-1.74-15.95-5.36-6.13.4-3.9-8.11-.58-3.81l3.79-2.47c10.21-.54,20.12-1.13,30.08-3.29-.01-.78.05-1.95.6-2.1,4.83-1.38,21.87-2.81,26-1.02,6.32,2.74,14.71,14.81,13.41,22.05.47-.08.84-.11.88-.01,3.21,7.89,6.08,15.99,8.89,24.06,2.36,2.19,4.15,4.54,5.38,7.05,1.32-.88,2.26-.87,3.26.17l-11.05-29.57c-5.54-9.31-.23-13.78,8.75-9.66.26-.88.59-.88.99-.03l3.19-.02c-5.63-7.79-9.94-16.08-12.92-24.87-.53-5.22.34-6.77,5.36-4.35-6.62-8.21-14.78-24.12,2.51-20.13,6.6-3.61,13.74-6.25,21.43-7.89l12.09-4.92,30.67-.25c1.82-.01,4.08-1.34,5.35.23,7.65.11,14.45-2.43,19.79-7.94,6.99-2.94,11.2-8.77,18.35-14.17-7.16,12.83-11.65,25.62-15.87,39.55-3.54,11.69-10.89,21.63-16.68,31.99-1.18,2.1-3.38,2.08-4.35,2.96Z"/>
  <path class="cls-47" d="M458.09,73.96c-.04.9,1.09,2.1,2.02,2.08l1.7.72c4.59,11.35,15.11,16.95,26.87,18.93,3.32,1.35,5.56,2.42,3.76,6.21-1.04,2.52-2.15,5.11-4.32,7.13l-.09,2.82c-6.37,4.42-6.48,6.81-.32,7.16,12.53-2.62,10.1,5.09,3.89,11.91,6.82,8.74,16.38,9.82,26.68,9.55,2.14,1.3,2.27,2.66-.12,3.51l-1.41,1.27.21,2.46c-4.5,1.97-3.18,4.78,3.97,8.43,4.13,1.38,7.89,3.09,11.28,5.12l.95,1.7c-1.93,7.51-15.42,12.7-22.6,10.69-1.62-.46-2.58-.9-3.55-2.45-1.39-.24-2.84-1.95-5.28-1.11,2.46,5.27,6.32,8.76,10.34,12.47-5.18,3.39-10.54,2.79-16.08.42,1.06,6.2,4.17,11.19,9.46,14.9-4.04,4.35-8.89,5.07-14.46,4,2.02,5.23,4.8,8.99,9.05,11.74-3.64,2.47-6.87,4.14-11.35,5.57-7.15-29.47-32.57-49.66-62.3-50.31l-2.06-3.67c-.69-42.18-31.08-76.99-68.85-92.39l-4.26-3.98.8-2.35c9.02-.36,16.47-2.98,22.35-7.86l1.07-2.43c-1.08-7.91.9-10.59,5.95-8.04,1.31-11.03,10.29-8.32,16.53-2.19,4.03,6.05,12.39,18.59,20.8,16.77,10.14-6.22,14.75-5,13.82,3.65,3.88,8.29,13.98,8.57,21.75,6.04,1.96.2,3.23.71,3.79,1.52Z"/>
  <path class="cls-11" d="M458.09,73.96c-2.88-.41-5.36.91-8.51,1.62-6.16,1.4-13.2-.92-17.52-5.65-2.25-2.47-1.6-6.73-1.89-9.88-7.69,2.39-10.85,7.95-19.95,2.64-12.37-7.22-11.88-22.35-25.87-19.5-.3,2.15-.02,5.32-1.66,6.53s-3.94-.38-6.04-1.04c1.87,5.37,1.28,10.06-2.65,13.29-7.29,6.01-14.89,4.15-22.78,6.88,2.4,1.42,4.22,3.2,5.47,5.36,3.65.08,6.93,1.8,10.02,3.49,20.28,11.1,42.4,32.4,50.99,54.09,1.31,3.32,4.19,13.11-2.66,9.54-4.78-10.2-10.72-19.52-17.79-27.97-2.32-3.57-6.18-7.61-9.44-10.57-7.88-7.16-25.79-19.86-36.12-20.05-3.48-.06-2.35,8.14,1.94,8.07l.59,1.31.79-.23c5.73,6.38,11.39,12.78,16.98,19.2-.27,3.09-2.29,2.91-6.08-.55-2.87-1.19-8.12-3.2-9.75-.46-4.39-.26-11.51-2.33-12.99-6.16-1.56-.57-6.86-1.78-8.04-1.22-2.57,1.22-2.29,3.94-.74,6.09,11.66,7.86,0,7.46-7.62,4.85-7.85,2.61-15.49,2.9-22.91.85-4.49-7.44-10.45-8.69-18.61-9.07l-1.17-1.75c-6.88.73-13.77,2-20.69,3.79l-1.85-.73c-4.87,1.36-9.8,2.38-14.77,3.08l-8.3,1.72c-1.06.22-1.6.18-2.12-.36-.6-.64-.22-1.51.92-1.98l49.69-20.24c1-1.1-.04-1.48-3.12-1.12l-38.93,7.16c2.44-3.74,6.05-4.14,9.03-6,3.21-2,6.29-4.06,9.79-3.86,1.74.23,3.95-.4,6.64-1.87l32.89-9.3c7.22-.33,14.42.28,21.58,1.85,3.35.6,8.42-.59,2.47-1.7-10.95-2.04-28.56-3.09-38.38,2.39-3.66,1.7-6.32,1.62-7.97-.21,3.58-3.03,8.26-3.34,13.26-5.82l-25.29.52c1.23-2.25,3.35-2.68,5.32-3.67-4.97-.48-8.98.41-13.05,1.13-4.51.62-8.2-.97-11.11-4.02,2.52-.57,4.85-1.46,7-2.69,3.69-.38,7.41-2.75,11.91-1.64,3.79.94,17.06-5.86,35.88-3.37l12.18,1.61c4,.53,7.53,2.62,12.01,1.71,2.94-.6,5.47,1.37,8.16,1.65l10.12,1.04c8.18,3.66,17.85-3,19.47-7.97,2.05-6.31,6.88-11.35,12.68-14.01.72-2.93,1.75-6.43,4.14-7.81,2.09-1.2,7.21-1.94,8.62.69,1.81,3.4,5.74,6.6,6.68,9.47,2.74,8.35,9.52,12.18,18.19,10.86,4.33-.66,8.89,1.05,13.5-.84,1.77-.73,5.75,1.23,7.54,1.32.39,3.93-2.79,5.46-3.7,7.93-.98,2.64,3.06,4.4,5.44,3.8,6.03-1.54,11.5,1.75,15.03,5.58.49.53,3.29.17,3.68.68.29.37-.33,1.12-.52,1.55Z"/>
  <path class="cls-36" d="M206.15,40.13c.14,2.02-.99,3.64-2.49,1.92l-3.67,1.9c.73,4.47-5.59,3.38-7.47-.02-5.08,3.88-9.83,8.16-14.27,12.86-1.99,1.27-4.04.26-6.15-3.02-2.82,11.91-7.18,8.39-12.14.74-1.04-1.19-2.26-1.98-3.66-2.37-5.41,6.78-10.51,13.77-15.3,20.97l-4.23.03c-.26,5.8-2.09,10.56-5.48,14.29-2.05-.53-2.49,1.84-1.31,7.13-.15,2.89-1.24,3.05-3.8,3.21-4.26.27-11.17-6.63-13.78-9.86-1.41,5.03-2.17,10.27-2.27,15.74-1.35,1.93-3.18,2.76-4.79,1.03,1.04,5.28,2.39,10.54,4.05,15.79-1.01,5.39-9.86-1.46-12.54-3.78-2.33,1.44-4.37,1.64-6.98,1.37-3.38,6.36-2.6,13.75-1.7,20.67-.33,1.98-1.77,2.25-3.68,2.08-6.13-2.82-13.33-4.08-2.82,2.22,3.74,3.9,8.34,10.88,4.61,15.74,1.47,2,1.43,4.33-1.15,4.88-4.99-2.28-9.9-3.32-14.74-3.11l12.12,8.1,1,3.3c-3.18.54-4.76,1.6-4.74,3.2,3.66-1.78,6.49,3.54,2.92,5.66-4.86-1.41-6.51-1.2-4.94.63,2.34,1.37,3.14,2.87,2.38,4.51-2.41.2-3.29,2.67-4.37,4.45-1.92-1.55-2.38-3.86-2.41-6.11-4.23-2.3-7.27-7.01-6.18-12.24.83-3.96-3.9-4.6-6.14-14.86-1.12-5.14,3.43-9.35,6.38-9.02,2.71.3,4.04,5.43,6.97,3.65.86-.52,1.27-2.55.62-3.65l-6.79-11.54c-.64-1.09-1.94-2.16-2.06-3.16-.12-1.06.5-3.16,1.86-3.22l6.98-.33v-12.88c0-4.11,4.22-5.72,7.68-6.06,11.46-1.14,9.51-9.37,17.82-18.25,2.99-3.19,5.6-4.69,7.7-8.71,1.1-2.11,3.61-3.33,3.06-7-.17-1.14,1.52-2.71,2.45-2.94,3.1-.76,4.56,3.65,7.66,7.61,3.47-1.43,3.46-3.32,4.14-6.42,2.75-12.4,10.92-14.21,18.34-19.42l9.88-6.95c5.27-2.55,9.56-5.26,13.09-10.1.88-1.21,4.73-1.5,5.49-.38.81,1.2.99,3.2,1.89,3.84.79.57,2.65.51,4.05,0l7.94-2.92c4.13-3.1,9.64-4.78,13.81-4.15,1.75.26,4.86-2.74,7.1-.08l.05,5.05Z"/>
  <path class="cls-7" d="M518.15,143.98c.08-.41.03-1.1-.15-1.48-.86-1.74-16.77,4.55-29.11-11.75,3.31-3.44,5.99-6.18,5.89-10.93-5.35,2.07-11.23,1.76-15.21-2.82l8.54-7.96c-.2,1.19-.2,2.68.68,3.64,12.57.49,10.01,12.7,15.59,16.02,2.96,1.76,6.01,3.75,8.01,6.93l5.43.51c3.04.29,4.5,1.51,4.41,4.34-.07,2.16-1.52,3.54-4.07,3.51Z"/>
  <path class="cls-11" d="M492.43,101.9c-.87-3.23-3.22-4.23-6.61-4.82-7.86-1.36-15.91-5.59-21.32-11.43l-4.41-9.62c.85-.01,2.21-.3,3,.3.61.46.91,2.3,1.5,2.94,5.29,5.65,12.45,6.99,19.02,10.3,3.51,1.77,8.22,2.35,11.44,3.02,3.3,3.08-1.67,6.97-2.64,9.31Z"/>
  <path class="cls-51" d="M257.1,61.7c-.88,1.96-2.63,2.16-5.78,2.8,2.67,2.42,6.42,3.69,9.9,3.91-2.4.42-4.75.66-7.34.8l-1.69-.72c-11.08-1.97-22.71-4.03-34.88-6.18-8.27-1.62-16.96-4.04-14.22-14.29-.24-.86.05-1.13.89-.81.38-2.48,1.12-3.29,2.2-2.43l-.29,8.56,13,4.43,13.29,2.34,15.81,3.85c3.31-.14,6.22-1.96,9.14-2.26Z"/>
  <path class="cls-49" d="M408.1,558.16l-37.67-7.61,52.59.43c3.28.03,6.23.26,8.3-3.02-5.94-1.77-10.41-4.52-14.62-7.53,3.29-1.19,5.37-.18,7.53,2.47l7.37,4.43c1.51,2.11-1.27,4.72-3.55,4.72l-30.07.04c-.2,1.68.99,3.21,1.88,3.73,1.35.79,4.58-.49,7.4.34.68.2.62,1.43.83,1.99Z"/>
  <path class="cls-42" d="M514.59,183c-2.43-3.71-6.11-7.15-7.6-11.79,9.87,1.72,19.79-.42,26.15-8.23.32.58.91,1.77.59,2.42s-1.97.99-2.43,1.87l-4.14,7.95c-2.54,4.87-12.15,4.2-12.57,7.78Z"/>
  <path class="cls-39" d="M490.14,498.93c-1.5,4.57-5.12,6.15-8.32,9.55-5.93-6.48-12.05-11.09-19.24-16.55l27.56,7Z"/>
  <path class="cls-7" d="M532.19,161.27c-8.12-.06-15.34-4.17-21.22-10.79,1.62-1.98,3.81-3.47,5.76-5.23,2.45,1.3,1.3,4.43,1.78,6.28.75,2.86,5.37,2.09,7.31,2.62,3.58.97,5.02,4.69,6.37,7.12Z"/>
  <path class="cls-13" d="M343.02,532.3c-5.62,6.16-10.43,13.22-18.42,18.13,4.87-8.81,10.89-15.49,16.39-22.64.97,1.39,1.76,2.83,2.02,4.51Z"/>
  <path class="cls-61" d="M106.3,460.27l-1-4.53-5.47.1,20.05-11.15c-.2,2.8-3.45,3.08-4.58,4.48l-9,11.11Z"/>
  <path class="cls-13" d="M357.17,528.18l-5.35,1.63c-2.82.86-5.52.95-7.67,2.26-.74-.73-.4-1.53.25-1.91l2.45-1.47c3.12-1.87,7.06-.56,10.33-.5Z"/>
  <path class="cls-5" d="M206.17,44.78l-2.2,2.43c-1.54-.66-2.86-1.75-3.97-3.26,1.44-1.98,3.96-2.61,6.16-3.82,1.16,1.55.07,2.93.01,4.65Z"/>
  <path class="cls-47" d="M200,43.95c1.31-.27,2.28-.47,3.97-1.31v4.57c-.25.28-.55.63-.89.81l-.4,2.78c1.56,5.41.82,7.16-2.21,5.24l-.45,1.33,8.64,19.27c-.35,3.46-1.21,3.41-4.22,2.83-6.88-1.34-15.84-13.34-19.7-19-2.13,7.79-2.44,15.82-.95,24.09.05,2.1-.63,2.51-2.21,3.4-3.64,2.06-18.72-4.54-19.5-9.96.18,3.54-2.17,5.17-4.58,2.22h-2.3c-4.75-10.05-5.55-8.83-5.69,2.15-.13,10.41,3.15,19.91,7.5,29.27.3,2.75-.82,2.97-3.52,3.15-5.92-2.11-11.9-3.87-17.96-5.29l12.03,23.63c-.76,4.5-8.93,2.93-8.4-1.39-2.07.19-3.65-.32-4.74-1.54.6,2.57,1.01,5.28,1.24,8.11,1.86-1.5,7.53,7.6,7.59,8.19.48,4.79-1.61,4.57-5.82,3.43-7.57-2.72-14.5-5.86-20.79-9.41,7.78,9.79,16.31,18.86,25.59,27.2,1.09,2.93,1.24,4.16-2.23,4.84-9.26.77-18.49-.1-27.69-2.58,5.68,4.98,12.43,8.45,19.3,11.48l1.44,2.81c-10.87,9.37-18.77,21.65-21.43,35.79l-.88,3.11c-.46,2.84-2.12,2.79-2.99.15-.23.01-.51,0-.76-.06-1.18,1.37-3.59,1.45-5.31.82-9.25-3.38-2.06-7.94,4.23-8.55,3.62-.73,3.38-1.64-.72-2.71-4.79-2.01-10.06-1.95-15.79.19-5.19-5.58,3.33-12.65,9.71-11.92-6.26-4.12-12.6-7.99-19.01-11.63l-.18-2.46-.79-1.08-2.81-2.2c-1.36-1.06-1.91-2.04-2-3.1s.12-2.74,1.64-2.87c2.16-.19,3.72,1.29,6.34,1.21-1.29-1.48-2.37-2.99-3.54-3.84-1.52-1.75.06-2.81,4.74-3.2-5.49-4.35-11.07-7.89-17.72-11.18,5.67-4.8,12.65-1.74,20.03,1.47-1.12-3.12-4.22-5.38-2.3-5.89.47-.12,1.27.18,2.6.49-.91-8.19-5.78-14.63-14.26-16.95,3.76-4.95,9.03-3.33,14.57-.29-1.63-8.46-1.72-17.21,2.26-23.56l4.72.13c.86.02,1.85-1.24,1.98-3.23,3.83,3.13,7.53,6.37,12.56,8.34-2.29-7.38-5.53-13.66-4.86-21.35l4.93,4.53c.78-7.58.62-13.75,3.34-20.42,4.98,4.55,7.96,10.82,16.72,12.06l-1.13-13.09c1.56.87,2.39,2.17,3.93,2.89,3.11-5.07,3.25-10.4,4.48-16.22,1.76,1.14,3.12,2.34,3.96,2.19,1.09-.18,1.18-2.24,1.59-2.78l14.83-19.56c5.31,1.92,7.82,5.88,10.71,10.85,3.11-2.1,3.55-6.11,4.13-10,3.13.98,4.13,3.22,5.63,5.8,5.43-5.53,10.46-10.96,16.77-15.1,1.21,1.98,2.35,3.4,3.56,3.79,1.12.36,2.5-.71,3.41-.91Z"/>
  <path class="cls-8" d="M165.87,294.78l-2.94-1.22c-3.26,1.46-5.52,1.03-6.79-1.3-4.77-1.03-8.29-3.24-12.05-6.27-5.41-4.34-11.79-10.53-13.04-17.38-1.45-2.16-2.29-4.53-3.19-6.75-3.17-7.84-3.84-14.16-4.24-23.32-1.24-28.47,21.21-57.82,51.76-57.81l249.2.05c31.94,0,53.46,29.93,52.09,60.29-1.25,27.76-22.36,54.41-51.78,54.48l-249.67.62-9.34-1.4Z"/>
  <path class="cls-34" d="M285.96,458.2c3.24,2.5-1.24,6.76-3.8,3.19l-41.23-23.93c1.11,9.56,5.23,16.95,8.47,25.71-10.71-5.36-18.92-12.9-26.34-21.23l-9.09-10.2c2.08,11.96,8.28,21.15,14.39,31.61-12.79-6.23-22.43-18.44-24.17-32.38-1.72-13.82-5.02-26.06-15.04-37.18l-9.43,31.47c-2.38,14.13,1.28,28.05-.12,42.18-4.23-6.62-3.53-13.87-7.15-20.65l-.47,43.54c-2.88-2.17-2.45-5.75-3.6-8.67-4.06-10.28-4.89-20.65-5.6-31.71l-1.37-21.28c.49-1.5-1.46-2.49-1.67-.44-1.53,2.84-3.18,3.14-2.76-.23l.7-2.41c.09-1.25.87-2.53,2.31-3.84,2.6-1.49,7.2-2.75,9.03-5.7l16.9-27.14c.67-2.71-2.11-5.65-3.25-7.56l-14.17-23.8c-5.3-8.89-6.25-19.46-8.23-29.68l-5.04-25.97,14.08,2.99c-.12,8.63,4.11,15.23,10.07,21.04.63,11.75.7,23.27.22,35.03s13.45,19.38,18.5,34.87c5.52,16.94,16.49,32.59,33.88,36.26l23.97,5.05c12.51,2.64,23.47,10.82,30.01,21.05Z"/>
  <path class="cls-47" d="M289.4,304.78c13.24-.08,26.45-.4,39.74.46-3.47,2.82-7.53,1.18-11.08,1.83-5.27.98-8.32,5.68-11,9.74,2.79-.46,5.13-1.87,7.25-3.47,6.25-4.74,13.42-4.35,20.02-1.46,3.78,2.14,6.78,5.27,8.99,9.39,5.48,7.8,13.74,19.85,8.74,29.29,3.85,4.12-1.07,9.09-4.96,6.53-.48.67-1.3,1.72-1.68,1.54-1.38-.66-8.61-6.28-6.33-7.74-4.29-1.68-7.59-2.08-12.11-.72-3.16,1.99-11.01,1.54-13.84-.91-1.93,1.13-11.75-1.21-12.88-2.16-1.23-1.03-3.05-8.59-.17-9.04-.93-2.27-1.8-4.36-2.61-6.25l-1.38.16c-1.25,3.95-1.94,8.27-2.07,12.97-3.39-.2-6.8-.85-10.24-1.93l-8.19.26c-2.07-3.4-.48-12.86,4.3-7.28.43-3.13,1.68-5.1,3.75-5.9-2.68-.74-4.29-1.67-1.83-4.01,0-.55.06-1.07.3-1.49,1.44-2.47,10.79-2.93,13.72-2.43,1.95-1.12,4.01-1.88,6.19-2.29,1.27-2.97.29-4.33-2.93-4.09-5.18-1.2-7.59-3.59-7.24-7.2-3.41.4-9.67.32-8.87-3.76l6.42-.04Z"/>
  <path class="cls-58" d="M328.91,450.14l-5.13,5.96c4.41,4.21,7.6,6.41,12.09,3.62.78,7.29-.7,13.25-1.05,20.38,2.78.51,5.43-.68,7.03-2.18,6.44-3.16,3.22,3.71,1.22,7.65-4.54,4.68-9.59,8.84-15.15,12.47-1.96,1.09-6.08,3.52-8.07,1.18l-5-12.04c-.89-2.14-4.24-2.02-6.69-2.44l-.13-30.83c0-.88-.02-1.58-.32-2.16s-1.2-.92-1.97-.76c-.88-.28-.88-.62-.03-1.04l9.47-3.51c4.99-.35,9.57,2.22,13.74,3.7Z"/>
  <path class="cls-52" d="M110.76,223.16c-3.23,19.7.51,35.1,8.21,53.63,1.31-.44,2.57-.24,3.34.79l5.6,7.46c-.27,12.72.56,21.32,12.13,26.77,1.9-1.04,3.83-2.71,6.06-1.57,1.88.97,3.8,2.93,3.77,5.83-.09,8.04,1.68,15.41,2.62,23.32l2,16.78,11.58,2.05c-4.48,4.7-12.2,5.44-16.44.14-10.36-12.95-16.42-28.1-19.4-44.45-3.41-18.77-17.33-33.71-20.21-52.88l-4.97-33.15c2.22-1.18,3.59-2.98,2.7-4.57l2.99-.15Z"/>
  <path class="cls-15" d="M260.09,388.02l3.68,12.09c1.42,3.65,2.02,7.83,1.79,12.54l2.51,2.8,18.17,5.28,33.97,6.19c-.63,2.06-2.28,2.39-4.41,3.81,3.88,2.46,10.41,7.22,15.9,5.78,6.14-1.61,12.37-6.64,16.59-11.09s4.86-10.38,8.12-15.74l1.98,10.77,15.06,4.65c-1.05,2.92-3.6,4.6-6.35,4.74-2.42-3.44-9-1.15-13.52-5.67-5.87,7.04-12.38,12.88-20.29,17.1-3.4,1.81-8.24-.49-11.1-2.33-10.8-6.9-17.13-2.52-27.17-5.12.87-2.32,1.75-4.21,1.75-6.84-1.62,1.55-2.86,3.46-4.51,3.83-1.94.43-3.42-1.53-5.23-3.49-1.44,2.03.3,3.13,1.05,4.34-6.24,2.72-13.06,1.48-17.28-3.59l-21.28-25.57c-2.34-2.81-1.39-5.64.41-8.6l3.21-4.81,2.05,1.08c.12,3.04,3.58,4.54.71.3-.04-3.34,2.06-5.34,4.19-2.47Z"/>
  <path class="cls-29" d="M247.49,417.71l-5.94,3.53c-3.11,1.85-14.05,1.6-9.02,3.62.67.27,2.4,1,2.75,2.49-2.59,1.78-7.26,1.04-10.63-.26,1.49-2.49,3.74-2.48,7.03-3.51l-6.56-2.65c-2.24-.91-4.77-2.47-6.3-3.54-3.21-3.07-.7-8.7-1.67-12.16l-2.49-8.81c-.2-.72-.91-1.41-1.3-1.5-1.93-.46-3.34,1.91-4.83,1.88-.74-.01-1.93-.81-2.41-1.85l-3.76-8.17c-2.89-6.3-1.24-13.49-.94-20.11,4.69-.56,5.68,2.92,7.01,6.06.92,2.18,4.62.84,5.18-.61.96-2.46,0-4.18-1.8-6.06-2.11-2.19-2.55-5.7-5.24-7.51-.04-2.23-.62-4.73.26-6.88.57-1.41,4.98-1.64,5.6-.34l3.93,8.09c2.16,4.45,1.6,16.89-2.35,22.74-2.29.24-6.36-.39-7.49,2.38-.96,2.35,2.39,6.39,5.1,5.06,2.15-1.06,2.48-4.31,2.6-6.49,3.78,1.49,2.66,5.29,3.27,8.59l6,11.6c1.38,2.68.12,6.99,3.24,8.86l1.87,4.4c12.2,4.45,10.81-1.03,17.51-3.88,1.61-.38,1.86-5.1,1.76-6.24,3.8.01,6.28,4.72,4.51,6.89-.54.66-3.08.23-3.79.66s-.4,3.29-1.1,3.71Z"/>
  <path class="cls-33" d="M230.62,407.39l-.52-22.72c-4.11,3.33-4.65,7.83-7.81,11.79-4.31-16.29-.88-28.31,5.54-42.97,3.83,1.59,5.15,4.44,7.54,7.22,2.86,3.32,6.98,6.52,7.68,11.29,1.44,9.75-1.14,19.29-4.8,28.23-1.31,3.21-2.44,5.8-7.64,7.15Z"/>
  <path class="cls-33" d="M281.19,357.86c.94,1.28-.07,2.59-3.03,3.93l-1.55.4c-4.1,1.06,14.36,7.37,27.55,9.65,2.8,1.73,5.97,2.48,9.52,2.25,1.32.41,1.64.75.47,1.82.42,1.46-.41,2.66-2.48,3.62,1.48,1.93,1.5,3.4.06,4.42-7.45.95-15.11,1.95-22.97,3.02l-.77-.97c-2.53-4.11,3.05-5.32,6.64-5.94,11.61.58,16.18-3.8,1.3-.12-4.63.26-12.68.54-8.24-5.84-4.24-.13-7.21-2.5-9.73-5.62-1.17,12.02-17.43,2.93-6.42-5.02-.38-.12-2.15.4-2.79.64-6.37,2.42-10.94,4.38-13.57,10.65-3.81,9.08-3.56,10.76,5.98,6.57l1.17,2.3c2.53,1.43,1.14,3.18-1.5,2.33-.39.62-.62,1.32-.76,2.07-1.05-.12-2.17.56-2.32,1.5-.28,1.84,3.24,3.42,1.93,5.76-.88,1.58-6.14-1.71-6.25-2.51-.13-.9-.3-2.61-.31-3.66,0-.56-.13-2.59-.97-1.92l-10.73,8.51c3.5-9.77,7.21-17.6,9.62-26.63,2.06-7.71,19.84-10.55,30.13-11.22Z"/>
  <path class="cls-17" d="M274.9,330.3c1.64,1.4,2.59,4.46.64,5.68-.82,2.5-.96,5.05-.41,7.64,6.33-.61,12.62-.17,18.87,1.33-1.64-.14-1.37-1.03.46-1.71-.45-3.32.06-5.69,1.53-7.1.31-2.74,1.1-3.97,2.35-3.71.22,2.03.8,3.91,1.73,5.64l1.3,7.73,5.29.56c1.28,2.99,3.93,3.24,6.47,2.9.61,3.07-2.3,3.94-3.7,1.06-1.98-.63-3.92.45-6.2,1.03-12.36,3.14-24.83-6.8-39.55-3.03-2.41-5.12-3.92-10.14-4.28-15.72l9.59,7.17c-.52-3.03-.93-6.58.82-8.04,1.11-.93,3.26-1.17,5.1-1.42Z"/>
  <path class="cls-29" d="M162.93,293.56c-.41.23-2.49.13-2.94.94s1.15,3.05,1.85,3.99c-2,1.56-5.59,1.72-8.73,1.67l-2.62,4.96c-2.44-.82-2.82-2.15-2.62-3.54.78-5.29,6.35-2.82,8.12-8.08-.98-1.01-2.69-.99-3.84-.87-2.2.23-2.73,1.94-3.96,3.74-.72,1.05-3.77.27-5.57-.49l-.92,7.83c-.08.64-2.52.59-2.99.03-.41-.5-.73-1.37-.73-2.71l-.02-10.96c0-1.39-.92-1.68-1.55-1.92-1.33-.5-2.44-.04-2.48,1.75-.02.75-.61,1.4-.94,1.64-.28.21-1.09.32-1.2-.47,1.83-5.82,6.07-8.77,4.44-11.48-.82-1.36-3.26-1.72-5.91-.23.32-3.78,1.09-6.87.73-10.73,7.86,11.69,18.24,21.07,31.88,24.94Z"/>
  <path class="cls-29" d="M107.01,223.25c-.55,2.97-6.39,4.31-10.59,2.21-3.16.51-5.18,1.88-8.64.74s-6.17-2.66-6.03-7.35c.03-.91-.42-2.35.82-2.71.65-.19,2.14-.27,2.62.37.29.38.04,1.67.15,2.38.49,3.14,3.88,1.76,5.93,1.72,5.56-.11,9.59-3,10.04-8.4-4.33-1.1-7.22,2.86-14.8,1.07-1.86-.44-2.12-4.41-2.18-6.21,3.25-1.24,5.59-3.65,7.09-7.15-1.33-2.27-3.57-4.55-5.57-6.09-5.52,1.32,1.95,10.45-5.1,10.71l-2.25-12.08c.24-1.46,2.74-3.72,1.45-5.48l25.57,15.64-9.3.7c-4.23.32-7.6,4.14-6.31,8.97,6.45-3.91,18.24-2.61,22.08,2.33-4.1,3.17-8.4,3.73-13.98,3.9,2.13,4.08,6,3.93,9.02,4.72Z"/>
  <path class="cls-29" d="M305.71,449.95l.03,1.04-14.84,7.06c-1.66-2.42-1.69-7.11,1.42-8.62,2.6-1.26,4.29-2.48,4.51-5.77.12-1.92-1.68-2.93-3.35-2.71-3.23.42-1.42,5.81-4.83,7.19-3.21,1.3-8.32-2.14-12.01-5.67,3.44-2.51,6.59.26,9.34.14,3.06-.67,5.6-3.66,7.84-5.62,3.5,1.7,5.92.35,9.35-1.11.78-.26,1.55,2.71.74,3.47-.59.56-1.63,1.14-2.97,1.67-1.64.65-1.9,2.66-1.02,3.59.74.78,1.52,1.84,3.78,2.29.56-3.52,4.99-7.88,9.05-6.66l8.88,2.68c-9.89,1.69-20.78,4.51-17.19,7.02.31.22.8.17,1.26,0Z"/>
  <path class="cls-29" d="M47.22,287.12c-1.98,2.97-1.24,5.04-2.3,8.16-7.73-6.88,2.45-11.55.83-22.53,5.39-3.67,7.17-3.83,12.79-1.72.66,6.37.53,12.21.03,17.8-4.36,1.95-7.4,2.56-11.35-1.71Z"/>
  <path class="cls-29" d="M59.66,401.25c-3.62,1.42-.54,6.55-2.29,11.48-5.33-3.87-5.29-9.62-3.81-14.93.56-1.99-1.33-4.12-2.89-5.85,3.31-2.4,2.92-5.42,3.91-8.57,1.13-3.59,6.76-2.81,9.31-1.39,1.91,1.07,2.22,1.79,2.05,3.54-.28,2.83-6.51,1.65-6.93,6.03-.49,5.01,5.88,4.16,7.51,6.6,1.29,1.92,1.51,10.29-3.12,10.01-1.07-2.07-1.65-4.98-3.74-6.92Z"/>
  <path class="cls-29" d="M326.98,350.16c3.89-1.57,8.4-1.28,12.11.72,2.33,2.39,4.56,5.43,8.01,6.2,2.47-1.62,3.92,1.14,1.89,3.12,1.38,1,1.38,1.3-.05.93-.46-.12,9.5.98,4.17,4.73,3.02.39,2.8,6.43-.1,6.99.67,2.43.35,3.13-.97,2.11-4.32-11.6-10.26-23.12-22.27-21.43l-17.74,2.5-1.88-.06-.72-5.67c1.32.42,2.71-.93,3.7-1.06,4.53-.58,9.48-.34,13.84.91Z"/>
  <path class="cls-29" d="M101.57,256.32c1.43,5.4.52,17.34-1.14,17.69-.76.16-1.57-.37-1.76-1.67l-2.06-14.18c-.92-1.28-3.78-1.82-3.75-3.78.1-6.67,5.78-5.92,5.82-14.78,2.68.89,2.55,3.18,3.77,4.96.61.89,2.53,1,3.08,1.67.97,1.2,1.51,10.51-1.69,9.58-2.05-.59-2.07-5.35-1.77-8.11-3.59,2.54-1.26,5.77-.51,8.63Z"/>
  <path class="cls-29" d="M51.01,364.65c.4,2.89-3.73,4.76-5.13,3.54-.77-11.92-8.59-18.28-.61-27.03l1.53-7.19c2.42-.24,3.06,1.82,3.68,3.07,1.7,3.44-4.58,8.62-3.91,11.95,1.05,5.21,3.64,9.75,4.45,15.66Z"/>
  <path class="cls-29" d="M302.02,319.87c-1.88,1.27-3.95,4.68-6.91,4.26-4.94-.7-8.89.6-13.31,1.95-.71-2.43.21-4.76,2.36-7.45l-7.09-2.49c-1.4-1.64-2-4.46-1.39-6.65,3.9,1.93,8.81,2.84,11.47,5.43,2.52,2.45,5.61,3.22,9.06,3.43,1.65.1,3.25,3.45,5.81,1.53Z"/>
  <path class="cls-29" d="M163.86,377.66c-.37,1.92-3,2.37-4.16,2.06-2.15-.57-3.06-2.05-2.9-4.23.17-2.47,1.85-2.68,3.89-3.93,2.23-1.37,3.66-3.55,6.44-5.01-6.04-2.34-7.2,4.04-10.5,4.32-1.4.12-2.47-2.92-.98-3.8,3.31-1.94,7.31-2.72,10.35-6.97,2.35,3.21,3.37,5.06,6.08,7.06-1.81,1.2-2.05,4.1-3.52,5.25-1.97,1.55-4.01,1.74-4.69,5.24Z"/>
  <path class="cls-45" d="M281.81,326.08c.38,1.3,1.66,2.84,1.83,4.01-.24,1.6-1.43,2.27-3.58,2.01,1.02,1.52.97,2.82-.16,3.89-1.06-.24-3.35-.28-3.75.69s-.52,4.21.41,5.05l9.12.52c2.92.17,5.01,2.5,8.32,1.58l-.1-8.96c0-.82.12-1.62.33-2.06.25-.51,1.31-.74,1.86-.83,1.75.02,1.72,1.4-.09,4.16-.98,3.03-1.28,6.1-.91,9.71-3.62.78-6.38-.2-9.46-1.46-5.58-2.29-11.41,3.14-12.72,1.07-.86-1.36,1.67-6.87,2-15.15l.06-1.4c-1.34-2.64,2.35-4.23,4.08-1.95l2.77-.87Z"/>
  <path class="cls-29" d="M279.04,326.95l-4.08,1.95c-1.25-.77-.95-3-1.58-3.66-1.34-.59-3.03-.06-3.17.52l-.71,2.78c-.59,2.32-1.8,3.82-3.9,3.51-1.42-.21-3.4-1.58-3.42-3.52-.03-3.5,6.25-3.06,6.77-4.16.67-1.4-1.57-4.79.2-6.8,1.94-2.2,8.11,1.83,9.88,9.38Z"/>
  <path class="cls-53" d="M282.98,304.82c1.83,2.77,7.25,1.81,12.84,1.46-.18,2.49-1.86,3.04-2.79,4.25,3.41,3.52,7.3,4.28,11.94,3.38.22,3.18-.74,5.23-2.95,5.97-.57-1.55-2.36-1.97-4.14-2.75-7.09-3.1-13.18-7.2-19.08-11.68,1.71-1,3.13-.62,4.18-.62Z"/>
  <path class="cls-29" d="M63,247.34c-2.38,1.34.88,12.97-4.08,10.99-.73-.29-1.3-2.28-1.12-3.33l2.95-17.11c.32-1.86,3.48-2,4.71-1.57,1.32.46,1.64,2.78,1.72,4.5.19,3.98-1.12,4.8-4.18,6.52Z"/>
  <path class="cls-29" d="M114.3,443.81c-4.04.64-8.22.8-11.74-.52-2.21-.83-2.04-5.76-.21-6.58,6.51-2.94,13.57,4.21,15.46.73.83-1.52-3.26-5.92-.79-7.95,1.3-1.07,3.49-.49,4.59.85l5.46,6.64-8.95,1.39c-.17,2.2-.97,4.99-3.83,5.45Z"/>
  <path class="cls-29" d="M43.75,322.87c-.03-.3-4.83-11.55-.93-17.04l5.09-7.17c3.95,1.09,1.04,6.29.27,8.29-3.17,8.25-2.42,16.43-3.57,25.13l-.86-9.21Z"/>
  <path class="cls-48" d="M159.75,428.23l-12.89,36.37c-1.74-5.38.58-10.54,2.37-15.43l7.76-21.17c.78.8,2.05.95,2.76.23Z"/>
  <path class="cls-29" d="M237.14,413.61c-1.54,1.64-2.95,2.61-4.56,2.4s-4-1.67-3.55-3.46c4.59-.94,7.66-3.41,9.27-7.42,4.36-1.07,5.66-3.91,6.53-8.77,1.77,2.1,2.38,6.51.78,8.22l-8.47,9.03Z"/>
  <path class="cls-55" d="M310.15,355.97l1.88.06-14.4,4.21c-6.83-.24-13-.44-19.47,1.54.36-1.53,2.17-2.58,3.03-3.93l28.96-1.88Z"/>
  <path class="cls-56" d="M289.2,459.15c-3.42,2.32,4.96,14.89,6.55,24.72l-13.58-22.48c.87-.27,1.85-.29,2.8-.92.57-.38,1.03-1.38,1-2.27,1.03.45,2.09.74,3.24.94Z"/>
  <path class="cls-29" d="M114.93,304.01c-2.03,1.29-4.57,1.06-5.44.03-1.13-1.34-.86-5.07,1-5.17,3.76-.21,4.22-2.86,5.21-5.24,2.8-1.32,6.24,4.39,5,7.07-.86.45-3.07.17-3.85.52-.73.33-1.03,2.23-1.92,2.8Z"/>
  <path class="cls-29" d="M257.59,428.76c-5.4,2.86-3.17,5.73-6.08,5.26-1.06-.17-2.85-1.06-2.83-2.51s2.11-2.7,4.03-2.67l.68-6.51c.24-2.28,4.7-1.66,5.71-.03,1.41,2.25,1.31,4.96-1.52,6.46Z"/>
  <path class="cls-29" d="M89.71,457c-1.31,1.14-2.09,2.14-3.89,3.04-5.43-7.2-9.5-2.85-11.22-6.04,5.24-2.73,1.54-6.8,3.32-8.53,2.14-2.09,1.93,2.58,5.66,6.07l.95,3.43c.26.94,1.86,1.14,5.18,2.03Z"/>
  <path class="cls-48" d="M157.69,425.59l-30.66,16.81c1.46-3.65,5.05-4.67,8-6.35l24.97-14.29c.08,1.75-.93,3.08-2.31,3.84Z"/>
  <path class="cls-29" d="M74.37,444.2c2.61.45,1.97,2.64-.23,2.44-3.24-.3-10.58-11.1-3.68-16.89,1.99,4.53,3.13,8.73,3.91,14.45Z"/>
  <path class="cls-29" d="M73.18,226.33c-.34-8.37-3.9-9.82-4.05-10.18-.29-.71.24-1.98,1.06-3.86,7.39,2.21,8.09,11.96,6.76,14.18-.34.56-1.8.26-3.77-.14Z"/>
  <path class="cls-29" d="M170.71,409.61c-1.97,1.51-2.96-2.57-3.78-3.66-1.71-2.27-4.68-5.41-2.5-8.58.47-.67,3.01-.58,3.7-.12s.25,2.51,1.08,3.51c1.92,2.33,4.46,6.57,1.5,8.84Z"/>
  <path class="cls-29" d="M156.34,349.22l-.49-6.17c-1.68-4.74-3.4-9.66-.42-14.88,2.38,6.85,4.6,18.86,3.71,21.27-.28.75-2.68,1.39-2.8-.22Z"/>
  <path class="cls-29" d="M66.86,218.95c-1.87,7.58,2.06,11.9-1.49,12.85-2.11.57-4.97.77-5.46-1.21-.52-2.1.13-4.42,2.29-5.42,3.21-1.48.19-4.83,2.26-7.39.56-.69,2.66.07,2.39,1.16Z"/>
  <path class="cls-29" d="M251.46,349.45c1.71.65,1.53,2.76,1.14,3.67-1.1,2.64-7.09,2.53-9.29,1.12-1.08-.69-2.5-3.13-.4-4.51s6.28-1.14,8.55-.29Z"/>
  <path class="cls-29" d="M268.86,356.67c-3.15,1.23-7.77,1.03-10.36-2.05-1.14-1.35-.7-4.34.43-5.06,1.76-1.12,3.79-.56,5.26,1.27l4.67,5.84Z"/>
  <path class="cls-29" d="M148.23,367.32c-.65,3.57-1.93,4.14-4.48,3.51-1.59-.39-3.79-2.72-1.61-4.76l5.43-2.24c.25-1.03.43-2.58.96-2.88s2.62-.25,2.98.25.42,1.61.34,3.02l-3.62,3.1Z"/>
  <path class="cls-29" d="M134.47,421.94c3.82.31,3.29,8.97,1.05,10.13s-4.31,1.85-6.05.64c3.76-2.97,1.54-11.04,5-10.76Z"/>
  <path class="cls-29" d="M272.99,436.02c-.12,1.32-2.86,1.57-4.27.86-1.08-.54-1.44-2.64-2.64-4.07-.92-1.09-2.7-1.62-2.94-2.54-.4-1.58.75-3.55,2.35-3.37,2.02.22,2.17,1.96,3.12,3.88.65,1.31,4.73,1.3,4.38,5.24Z"/>
  <path class="cls-29" d="M81.07,436.62c-3.33.91-6.31-4.56-4.38-6.75,1.67-1.9,4.33-.7,5.42.56,1.23,1.43,1.97,5.37-1.03,6.2Z"/>
  <path class="cls-29" d="M144.67,413.99c2.93,2.64-.28,7.93-.1,8.08l-1.41-1.18c-1.4-1.17-3.43-1.29-3.9-2.67-.58-1.71.11-3.03,1.37-4.01,1.41-1.1,2.85-1.29,4.04-.22Z"/>
  <path class="cls-29" d="M121.49,307.92c-.11,1.99-.54,6.76-3.56,5.72-2.26-.78-2.94-7.02-1.21-8.67.85-.81,2.28-1.26,2.95-1.11,1.12.24,2.01.99,1.83,4.06Z"/>
  <path class="cls-29" d="M247.28,367.01c1.66,2.91-1.5,3.94-1.98,1.55,1.47-2.93-.28-4.54-2.26-5.47l-1.88-.89c-.65-.31-.81-2.64.01-3.2l8.41,2.72c1.38.45.14,4.33-2.3,5.29Z"/>
  <path class="cls-29" d="M66.7,427.25c.37,2-2.68,4.81-4.5,5.69.6-7.48-5.28-7.55-3.76-10.21s2.82,2.13,8.26,4.52Z"/>
  <path class="cls-29" d="M100.95,229.45c3.17,2.1.04,9.03-2.57,9.56-1.06.21-2.31-1.08-3.32-2.59,4-2.47,2.87-8.96,5.89-6.96Z"/>
  <path class="cls-29" d="M161.3,405.52c1.23.78,1.92,4.78,1.36,6.13-.86,2.03-3.42,1.21-4.47.52-1.47-.97-1.27-3.11-1.27-4.69,0-1.79,1.88-3.55,4.39-1.96Z"/>
  <path class="cls-29" d="M84.14,445.62c.4-1.02,6.59-1.06,7.45.33.46.74.65,2.77.27,3.53-.5,1.03-7.07,1.09-7.64-.11-.37-.79-.41-2.93-.09-3.75Z"/>
  <path class="cls-29" d="M238.32,339.92l-12.25-.19c-.6,0-.61-1.84-.28-2.25s1.1-1.5,2.16-1.18c6.48,1.95,10.98-2.54,10.37,3.62Z"/>
  <path class="cls-29" d="M170.8,381.3c1.06,2-.75,5.11-2.82,5.61s-2.81-1.36-2.99-2.48c-.24-1.5-.25-3.07.99-3.9,1.15-.77,3.92-.94,4.82.78Z"/>
  <path class="cls-29" d="M52.47,256.95c-3.13-3.92-.1-8-.36-14.1,4.28,1.89,3.12,7.21.36,14.1Z"/>
  <path class="cls-29" d="M237.07,351.76c.06,1.54,0,4.49-2.12,4.03-2.64-.57-4.08-5.02-3.49-6.85,1.44-.58,2.97-.58,3.66-.39.95.26,1.85.53,1.96,3.21Z"/>
  <path class="cls-29" d="M132.57,343.76c2.62.59,1.39,6.27-1.16,11.29-2.74-6.22-1.26-11.83,1.16-11.29Z"/>
  <path class="cls-29" d="M259.46,329.76c.03,1.78-3.55,4.06-5.13,3.88-1.6-.48-1.39-3-1.34-4.01.08-1.55.81-2.55,2.5-2.59,1.18-.03,3.93.42,3.97,2.71Z"/>
  <path class="cls-29" d="M365.11,430.12l-15.14,4.79c-.88-.77-.96-1.7-1.05-2.47-.14-1.19.91-1.91,1.54-1.94.59-.03,2.44,1.71,2.98,1.5,3.45-1.32,8.1-2.81,11.68-1.88Z"/>
  <path class="cls-29" d="M130.23,338.29c-.43,2.61-1.53,3.07-2.78,3.41-1.67.45-2.43-.8-2.53-2.65-.13-2.22.5-3.01,1.91-3.63,1.87-.83,3.89-.03,3.41,2.87Z"/>
  <path class="cls-29" d="M102.62,450.31c-.84,1.89-3.28.69-4.26-.1-1.19-.95-2.79-3.22-.8-5.06s6.51,1.87,5.06,5.16Z"/>
  <path class="cls-29" d="M172.79,394c.33-2.37,2.72-3.05,5.4-3.36,1.74-.2,1.4,3.7.62,3.8-1.78,3.03-5.14,2.15-6.02-.44Z"/>
  <path class="cls-29" d="M105.85,274.29c-1.48-1.01-.29-6.25,1.08-7.02,2.1-.23,3.13,2.59,3.06,4.08-.08,1.64-1.66,4.47-4.14,2.94Z"/>
  <path class="cls-29" d="M281.07,354.02c-5.41.31-8.26,5.74-11.51,3.33,1.62-3.14,4.24-2.93,6.63-4.12l2.36-1.18c1.01-.5,2.82.45,2.51,1.97Z"/>
  <path class="cls-29" d="M181.98,383.21c.65,2.04.04,4.35-.68,5.04-1.39,1.32-2.76.34-3.39-.67-.93-1.5-1.06-2.7.02-4.18.8-1.09,3.35-2.39,4.05-.19Z"/>
  <path class="cls-29" d="M127.33,324.54c-3.07-.96-5.77-6.28-2.79-8.23,2.28-.33,4.66,4.93,2.79,8.23Z"/>
  <path class="cls-29" d="M172.21,375.35c1.63-.82,2.8-.64,3.49.26,1.11,1.44.61,2.9-.62,3.93-.79.66-3.15.91-3.86-.16s-.29-3.38.99-4.03Z"/>
  <path class="cls-29" d="M137.79,348.3c1.87-.85,4.48,2.75,4.03,4.88-.31,1.5-2.58,2.7-3.42,1.43-1.08-1.61-.43-4.66-.61-6.31Z"/>
  <path class="cls-29" d="M47.73,383.78c-2.03-3.58-1.57-6.68,1.85-8.65,1.42,2.7,1.84,6.14-1.85,8.65Z"/>
  <path class="cls-29" d="M257.67,345.79c-.43,1.62-3,1.46-3.78.75-.98-.89-1.58-3.72.13-5.03,1.2-.92,4.13,2.47,3.65,4.28Z"/>
  <path class="cls-29" d="M260.25,317.5c1.31-.88,2.7.84,3.21,1.57.77,1.12-.53,2.21-1.06,2.86-1.22,1.5-1.97.14-2.56-.45-1.06-1.07-1.47-2.73.41-3.99Z"/>
  <path class="cls-29" d="M98.54,431.09c.12,2.21-.73,2.94-1.41,3.41-.73.5-1.51-.11-2.47-1.21s-.01-1.82.91-2.25c.76-.36,2.93-.74,2.98.05Z"/>
  <path class="cls-29" d="M95.94,455.1c-.35,1.31-2.51.6-3.06-.52-.59-1.21-1.44-2.67-.14-3.96.61-.61,1.7-.36,2.16-.02.66.49,1.68,2.06,1.04,4.49Z"/>
  <path class="cls-29" d="M286.83,437.68c-.82.61-3.8.87-4.48.12-1.15-1.26,2.82-3.58,3.71-3.3,1.22.38,2.36,2.02.77,3.18Z"/>
  <path class="cls-29" d="M79.51,212.88c-1.3-.65-1.71-1.82-1.57-3.42.11-1.23,1.13-1.75,2.72-3.33-.15,2.16.1,4.3-1.16,6.76Z"/>
  <path class="cls-29" d="M75.81,201.64c.37,1.72-3.36,6.69-5.37,4.08l3.83-4.57c.47-.56,1.43-.01,1.54.49Z"/>
  <path class="cls-29" d="M200.98,397.41c1.08-1.02,2.55-.63,2.86.09s.54,2.21-.4,3.45c-.45.59-1.48-.47-2.03-.67-.83-.3-2.03-1.36-.43-2.87Z"/>
  <path class="cls-29" d="M153.23,419.87c-.64-.78-.49-3.92.14-4.64,1.22-.86,2.33,1.38,2.56,2.32.32,1.28-1.37,3.26-2.7,2.32Z"/>
  <path class="cls-29" d="M65.94,414.94c.39,3.26-1.05,3.3-2.4,2.99-1.03-.24-2.3-1.07-.92-2.36,1.06-.99,3.17-1.98,3.33-.63Z"/>
  <path class="cls-29" d="M208.68,405.37c-.98,1.76-.3,2.05-.36,2.45-.2,1.2-1.37,1.51-1.85,1.11-.62-.52-.83-1.88-.61-3.09.26-1.38,2.03-1.52,2.82-.47Z"/>
  <path class="cls-19" d="M421,168.76c-8.67.61-17.07.1-26.27.1l-115.87.08c-6.84-4.35-11.72-6.42-20.19-4.51l-1.83-1.81-6.64.71c-7.77.32-2.71-5.95,1.2-8.98,1.91-1.88,6.45-6.12,8.61-4,6.43-5.73,20.18-4.5,27.56-.81,9.95,7.68,19.74,7.68,32.09,4.71-14.09.65-24.47-2.62-36.47-10.34-1.33-2.28-3.7-3.3-7.12-3.05.76-2.59,1.72-3.54,2.88-2.87l6.51-.72.62-1.41c-1.65.73-3.98.07-2.98-1.94-7.48-.74-15.07-1.38-22.77-1.92l-.25-1.2.26-2.29,19.87-7.38.02-.93c-8.13,1.07-16.14,2.91-24.04,5.51-1.44-.45-2.6-2.1-2.3-3.54.38-1.78,12.41-8.83,15.02-10.02,9.34-4.26,16.14-3.96,26.24-3.31,2.75,3.07,5.71,5.42,8.88,7.06l1.15-.87c6.99,1.36,14.1.89,21.31-1.42,2.74.15,4.87.97,6.39,2.45,3.13.16,5.49,1.22,7.06,3.2,1.33-2.39,2.38-1.71,1.84.98,3.23.13,4.96,1.07,5.19,2.81,1.65-2.39,3.11-1.6,2.73,1.19,3.64.59,3.59-1.56,2.37-4.36-.19.89-.51.91-.96.09-2.81-.9-4.5-2.24-5.08-4.03l-.78-.07c-2.13.38-3.91-2.05-5.02-3.78-1.29.92-5.49-2.29-6.41-4.13-2.88-5.77,3.47-6.97,6.01-3.84,4.7,2.36,9.59,4.28,14.66,5.76,3.88-2.75,11.23-.4,14.72,3.11l1.35-.56c5.91,6.33,5.79,4.95-.37-4.13-6.13-5.55-11.44-11.67-15.95-18.36-3.36,1.7-6.04-4.91-4.13-6.89,2.48-2.58,18.52,5.74,21.11,7.39,5.05,3.24,12.17,8.02,16.49,11.93,5.46,4.93,11.4,12.37,15.59,18.47,6.25,9.08,12.73,20.8,16.1,31.2,1.02,3.14,3.44,10.75,3.17,13.49-.12,1.25-.76,2.31-1.58,3.23Z"/>
  <path class="cls-11" d="M200.47,56.04c2.22-.33,4.59.75,7.12,3.24,13.97,3.74,27.96,6.8,41.98,9.2l-.45,1.6-8.83,5.2c-7.78,4.59-15.28,8.94-21.87,15.16l-25.54,24.08c-.35-5.67,4.58-7.63,5.13-13.27-21.84,17.47-34.41,40.69-36.23,68.89-10.71,2.6-20.58,7.1-28.71,14.11-9.77-4.23-19.27-8.88-26.43-17.21,11.9,1.37,22.8,5.89,35.26,3.12l-18.19-17.88c-4.85-4.77-9.4-10.06-11.36-16.78,10.68,5.44,19.11,11.91,30.01,13.37-2.6-4.64-5.19-6.97-6.66-10.56-2.07-7.19-.9-9.38,3.5-6.57,1.5,1.39,4.26,2.06,6.91,2.34l-14.07-27.02c9.15.24,15.05,4.48,23.78,6.19-7.74-14.89-11.12-30.63-5.49-45.83l7.19,12.8c3.54,1.6,4.48,1.49,2.84-.33l1.74-1.89c5.85,4.19,12.06,8.67,19.84,8.09l-.96-11.02c-.61-7.04.65-13.38,3.63-19.28,5.53,9.95,11.96,18.55,22.72,22.73-3.6-8.03-10.28-21.21-8.58-22.29.43-.27,1.38-.15,1.73-.19Z"/>
  <path class="cls-11" d="M254.61,127.62c3.67-.58,10.36-1.08,5.48,3.19,1.25,1.55,3.6,2.2,7.05,1.95,4.45-.33,8.42.13,11.91,1.4,1.52.94.76,2.67-2.26,5.19l1.04,1.32c3.04.64,9.36,2.09,4.05,6.86-8.75-2.32-16.04-1.37-21.87,2.84-7.92,5.46-16.04,12.27-9.81,12.98-7.93.85-15.65,2.31-23.56,5.33-1.97.75-4.44.5-6.85.26,1.27-6.67,3.61-12.33,5.69-19.22l-11.68,5.68c1.47-8.93,5.99-16.2,12.04-21.54l11.37-5.47,1.71,1.65c1.98.3,4.13-.3,6.46-1.82,4.04-2.01,7.12-2.2,9.25-.58Z"/>
  <path class="cls-10" d="M400.8,304.78c-4.14,5.86-16.65,8.29-26.06,10.99l-7.82,4.33c-1.98-3.32-8.14-.95-8.66,1.75,2.58,7.81,8.08,13.88,12.21,21.16l-9.67-5.03c.41,6.03,2.9,11.22,6,16.23l7.98,12.88c.72,1.17-2.02,2.52-3.02,1.83-.74-.51-2.02-.78-2.6-1.95l-1.16-1.98c-3.53-1.85-6.12-4.42-7.76-7.73-2.69-13.86-7.28-27.53-14.81-39.8l-.38-4.91c-1.04-1.85-.63-4.81-.85-7.77h56.61Z"/>
  <path class="cls-44" d="M426.38,168.88l-5.39-.12c-3.83-32.54-28.47-67.51-58.37-81.38l-11.74-3.65c.57,2.89,1.96,4.72,3.36,6.21.93,1.34.92,2.06-.03,2.17-1.58.06-3.57.23-5.1-1.42-2.05-2.21-1.53-8.64,1.82-9.18,2.07-.31,6.78.16,8.52,1.19,6.12,3.59,12.94,6.12,18.91,10.85,3.48,2.76,5.7,6.67,10.58,7.36,1.39,4.14,4.64,6.07,8.49,7.81-.12,3.29,1.33,5.6,4.36,6.38l9.1,16.03c1.42,2.5,3.25,3.9,3.84,7.13.18.96,2.18,2.05,2.6,1.44,3.02-4.25-2.77-9.21-4.36-13.32-2.52-6.51-5.69-11.22-10.29-16.06-3.93-4.14-7.25-8.56-11.77-12.17l-5.79-7.4c-1.57-2.01-5.81-1.02-7.66-4.46-.78-1.44-4.52-1.91-5.55-3.06-3.25-3.64-12.13-8.73-16.1-6.31-1.11-2.1-2.7-5.81-4.6-8.07,42.64,17.49,75.3,53.02,75.16,100.03Z"/>
  <path class="cls-31" d="M343.17,103.89c.04,1.27-1.07,1.35-3.33.22-1.08.05-3.46-1.57-4.81-.99-2.06,4.52,2.22,6.74,5.21,8.96,1.26,1.87,2.62,3.78,5.02,3.78.19-.02.61-.04.78.07.26,1.33,1.95,2.67,5.08,4.03l.96-.09c3.06,3.79,2.51,5.64-2.37,4.36l-2.73-1.19c-1.03-1.65-2.76-2.59-5.19-2.81-.39-.36-1.32-.75-1.84-.98-1.67-1.96-4.02-3.03-7.06-3.2-4.91-.73-10.15-1.44-15.34.55-4.75,1.82-9.37,1.3-13.51-.72-3.17-1.74-6.19-4.1-9.04-7.08-15.77-2.45-27.34,2.48-39.57,11.62-3.07,3.45-10.66,8.96-15.32,10.19-.33.09-.75-.21-1.21-.61l-7.95,1.9c-1,.24-1.85,2.19-2.77,2.59-.59.26-1.53.02-2.36-.66,8.62-7.6,18.77-13.57,28.16-20.85,2.31-1.79,3.67-2.56,6.19-3.2l3.7-2.47c6.66-1.68,13.39-2.9,20.2-3.68,3.25-.12,6.1,1.16,9.12,1.67,5.64.94,8.43,3.62,11.23,8.31,5.81,1.31,14.15.38,19.89-.07,3-5.58,7.88,4.82,14.47-.7-4.85-1.85-8.2-4.67-6.83-10.36l7.99-.58c2.11-.15,2.46,1.55,3.22,2Z"/>
  <path class="cls-50" d="M263.74,85.1c5.18-3.52,11.06-7.21,17.24-8.84,3.18-.84,6.21-.87,9.74-2.71s8.34-3.43,12.45-3.15l23.9,1.64c2.21.15,6.12,1.6,6.14,3.89-5.96,5.62-20.14-3.02-32.68.62l-34.17,9.93c-.98.28-1.64.33-2.14-.18-.22-.23-.43-.8-.48-1.2Z"/>
  <path class="cls-28" d="M339.83,314.05c1.31.1,2.58.45,3.62,1.28,4.6,3.68,10.18,18.42,12.35,24.52,1.09,3.07,5.53,17.49,4.23,19.8-2.52,4.47-8.27,3.82-11.04.54l-1.89-3.12c1.67-1.45,4.89-1.78,4.68-3.5-.07-.62-1.7-1.25-2.75-1.81,3.79-5.62,3.75-11.5.32-17.17-4.83-7.97-8.97-16.05-15.02-22.73,1.72.75,4.16.57,5.51,2.18Z"/>
  <path class="cls-38" d="M345.03,312.55c6.29,11.2,10.93,23.19,14.15,36.14,1.57,6.3,4.14,11.73,9.71,15.41l.99,1.6c.35.56.32,1.49-.74,1.26l-.99.03c-3.37-1.47-6.77-1.98-10.18-1.52-1.89,1.21-3.51,1.34-4.87.39.01-.98-.29-2.15-.74-2.79-.77-1.09-2.55-1.6-4.17-1.35.1-.73.45-1.11.79-1.52,2.48,1.41,5.33,1.75,7.23.6,3.53-2.15,2.38-4.76,1.88-7.98-2.31-14.9-8.84-27.56-18.27-38.76l5.2-1.5Z"/>
  <path class="cls-5" d="M253.87,69.22c-1.32.07-3.58.4-4.75.87-.3-.84-.99-1.04-1.98-1.22l-29.7-5.29c-6.5-1.16-12.72-3-16.97-7.54,3.32-.4.13-6.68,2.61-8.02.06,12.7,12.83,12.49,24,14.83,11.48,2.4,24.49,3.51,26.29,4.34.66.3.9,1.18.5,2.03Z"/>
  <path class="cls-41" d="M278.86,168.94l-4.86.05c-6.52-1.7-13.5-.85-20-.03l-14.15-.38,17.96-4.87c.31-.28-.45-1.31-.97-1.09,11.36-1.22,16.85-2.02,22.02,6.32Z"/>
  <path class="cls-31" d="M438.05,357.15c-7.21,6.54-11.99,2.35-19.4.76l2.02-3.9c1.07-1.05,2.63-1.15,4.68-.31-1.12-3.52-1.84-6.84-1.45-10.56.43-1.44-.29-3.49,1.59-5.22l6.31,13.28c1.26,2.65,4.05,4.23,6.24,5.95Z"/>
  <path class="cls-60" d="M284.08,103.64l-23.9,6.16c.21-1.33,1.49-1.67,3.04-2.63-5.66-.62-9.7,4.24-16.44,2.62,10.12-3.25,20.75-4.39,31.61-6.45,2.37-.45,4.32.36,5.7.31Z"/>
  <path class="cls-59" d="M456.6,296.82c-3.28,10.21-17.91,10.26-19.79,7.94l19.79-7.94Z"/>
  <path class="cls-21" d="M274,169l-20-.03c.75-1.79,3.48-.65,4.85-.94,5.73-1.23,10.59-1.78,15.15.97Z"/>
  <path class="cls-54" d="M286.96,88.93c-.52-1.03-1.93-1.19-3.12-1.12,2.53-.46,4.89-1.98,8.31-1.69-1.25,2.12-3.41,2.08-5.2,2.81Z"/>
  <path class="cls-1" d="M368.15,366.99c-3.24.1-6.31-.24-9.85,2.05,3.96,7.62,5.33,15.56,8.47,23.12l7.23,17.38c-3.43.55-5.01-2-6.81-3.48-7.14-9.37-11.35-21.59-14.19-33.21l.1-6.99c4.64-3.92,11.19-3.57,15.04,1.13Z"/>
  <path class="cls-32" d="M260.85,385.96l1.5-2.33c1.77-2.73,6.8-.63,6.25,2.7l5.24.62c2.3-.56,4.35-.81,6.13-.73.33-3.07,7.28-3.13,8.03-.22,3.65-.1,6.35-1.59,10.02-1.68l13.72-.36c.19-1.69,1.64-2.35,4.35-2-1.94-2-2.59-4.02-1.94-6.05-.52-.42-.69-1.56-1.76-1.71-.92-.13-1.96,1.1-2.61,1.25l-3.7-1.54c-1.3-.54-1.91-1.19-1.92-2.07l13.77,2.38c-.39.73-.95,2.44-.32,3.04l14.42,13.74,7.1-4.15c-.14,3.72-3.34,8.86-7.2,8.7-6.73-.28-9.18-11.94-20.02-10.54l-39.85,5.13-11.22-4.17Z"/>
  <path class="cls-4" d="M263.78,400.11c4.63.39-.36,7.2,4.3,15.33-3.03-.88-5.47-1.94-7.72-4.89l-8.24-10.79c-.42-1.32,1.72-3.92,3.2-4.97l9.63,16.87-1.16-11.55Z"/>
  <path class="cls-12" d="M440.15,324.87c-1.75,2.89-5.49,3.67-7.77,5.41-1.91-5.69-1.88-10.98.19-15.77,2.6.86,5.59,1.31,6.93,2.96,1.05,1.34,1.62,5.8.65,7.4Z"/>
  <path class="cls-22" d="M327.92,498.04c.24-2.23,2.55-3.24,4.47-4.57,6.2-4.27,12.93-8.84,11.49-14.77-.14-.59-1.01-1.02-2.04-.79,2.62-2.45,4.51-5.53,8.39-7.76-5.62,18.49-8.24,20.08-22.31,27.88Z"/>
  <path class="cls-46" d="M367.2,406.06l-6.81-5.62c-1.24-1.55-.77-5.14-1.54-7.2l-6.81-18.28c.88-.2.96-1.22.97-2.11,3.85,10.04,7.13,20.38,13.4,29.74.83,1.24,2.03,2.43.79,3.46Z"/>
  <path class="cls-6" d="M420.67,354.01l3.23-10.87,4.43,12.17c-2.82.75-5.54.48-7.66-1.29Z"/>
  <path class="cls-57" d="M451.72,314.61c-1.58-3.41,1.77-3.56,2.81-4.99l5.16-7.1c-.03,5.18-4,8.3-7.97,12.09Z"/>
  <path class="cls-9" d="M339.84,104.12l3.33-.22c1.78,1.06,3.95,2.72,6.14,3.6,6.03,2.43,12.96-2.72,20.49,5.07,1.39-4.7-3.04-5.62-4.99-7.48-2.79-2.67-3.87-6.21-7.34-8.6l-3.24-4.38.03-2.17,15.4,16.41c4.75,5.06,9.36,10.23,10.95,16.97l-13.15-10.87c-2.99-2.47-7.69-2.66-11.1-3.39l.42,2.37c.4,2.27-10.56-2.67-16.93-7.31Z"/>
  <path class="cls-2" d="M83.52,171.93l-4.74,3.2c-2.47-1.78-5.56-3.31-5.44-7.03,3.44,2.16,6.35,4.63,10.18,3.84Z"/>
  <path class="cls-35" d="M139.19,131.74c-.58.07-2.41.03-2.8.62-.78,2-.34,4.08-.7,5.95-1.74-4.24-4.29-8.54-4.21-13.71l7.7,7.14Z"/>
  <path class="cls-43" d="M157.52,80.22c1.94.01,3.31-1.21,4.58-2.22.53,5.13,3.33,9.21,6.2,14.08-5.17-3.1-8.3-7.44-10.78-11.86Z"/>
  <path class="cls-29" d="M423.02,290.19l-246.43-.05c-28.21,0-48.52-26.36-47.39-52.94.05-27.2,19.25-48.3,45.9-51.37l248.75.51c28.77.06,48.01,26.4,47.18,53.78-.79,25.78-20.22,50.07-48.02,50.07Z"/>
  <path class="cls-18" d="M339.08,350.88c-4.22.63-8.17.41-12.11-.72,1.63-1.94,4-2.98,6.39-2.91,2.56.08,4.08,1.95,5.72,3.63Z"/>
  <path class="cls-24" d="M283.64,330.09c0,1.44-.82,3.57-1.47,5.2-.32.8-1.75.81-2.27.7l-3.08-4.93c2.58-1.27,4.83-1.11,6.82-.96Z"/>
  <path class="cls-14" d="M300.08,338.06c-1.24-.79-1.87-1.96-2.16-4.4-1.3.72-1.3,1.72-1.92,2.47.38-1.18.03-2.89.09-4.16.24-1.22-.39-2.84,1.22-4.64,1.87,3.73,2.19,7.22,2.77,10.73Z"/>
  <path class="cls-30" d="M138.19,319.88c6.29,8.68,12.98,19.09,8.61,28.49-5.82-8.54-7.89-18.13-8.61-28.49Z"/>
  <path class="cls-25" d="M282.72,427.13c1.19.88-.87,3.37-2.66,2.78-5.99-1.98-11.98-6.08-12.79-12.6,6.18,2.81,10.26,6.01,15.46,9.83Z"/>
  <path class="cls-27" d="M288,386l-8.03.22c-3.2.73-6.99.77-11.37.11-1.57-1.32-4.39-1.94-6.25-2.7-2.35-.96-3.8.32-5.96,1.78-1.56.52-3.91.17-6.12.06l2.23-9.17c.73-2.99,3.52-6.98,5.27-9.39,3.66-1.05,6.41-2.65,9.59-4.35,1.99-1.06,4.91-.84,6.78-2.36.66,4.7-2.89,5.86-4.7,8.55-1.2,1.78,4.22,5.06,6.07,2.91.89-1.03.83-2.94-.88-4.08.76-1.03,2.18-1.43,3.64-1.1.71.16,1.55.89,2.26,1.82,5.12,6.75,13.15,2.1,14.42,4.22,1.72,2.87-6.24,1.18-7.23,4.83,6.03,1.79,11.45.02,17.42-1.2,1.44-.29,3.16,3.21,2.23,3.93-5.92,4.55-15.66-1.39-19.36,5.93Z"/>
  <path class="cls-27" d="M311.74,383.95c0-1.33-2.12-2.72-2.59-3.79.51-2.37,3.2-3.73,5.01-4.26,3.17,2.55,2,5.54,7.07,6.67-3.29,2.43-6.48,1.29-9.49,1.37Z"/>
  <path class="cls-40" d="M283.1,133.93l2.98,1.94.71,1.16-7.84.98c-.47.41-1.8.34-1.85,2.11,9.61,1.28,17.08,8.9,26.11,11.43l30.98,1.16c-11.27,3.14-22.62,5.97-34.2,5.21-8.15-.53-19.56-17.25-39.99-7.55.11-2.29,2.37-4.16,5.03-4.22l16.73-.37.08-3.75-6.96-.1,4.16-7.76c.71-.57,2.06-.65,4.06-.22Z"/>
  <path class="cls-62" d="M304.04,115.89c-.85.18-2.63.37-3.43-.44l-5.76-5.74-19.49.84-17.41,9.22c-1.64.87-2.06,1.18-2.06,2.78,0,1.45,1.39,1.97,3.1,1.41l12-3.92,9.26.15c0,.51-.02.93-.19,1-3.38,1.38-16.73,6.68-19.45,6.77-1.79-.66-3.78-.77-5.99-.35l-14.65,4.22c-1.17.34-1.55-1.28-1.05-1.82l27.73-18.33c6.04-3.99,12.04-5.17,19.49-4.48,3.77.34,8.49-.82,11.62,2.17,2.23,2.13,3.93,4.82,6.3,6.52Z"/>
  <path class="cls-20" d="M260.09,130.8l-.26-2.47-5.22-.72,25.64-7.42c1.11-.32,2.64-.42,3.75.27l-23.9,10.34Z"/>
  <path class="cls-16" d="M283.1,133.93c-.93,1.75-2.92.23-4.06.22-5.58-.03-11.01-.2-17.04-1.38l-2.38.27c-.36.04-.89-.53-.59-1.39.13-.37.8-.64,1.06-.85,6.92,2.84,16.63-1.03,23.01,3.12Z"/>
  <path class="cls-3" d="M349.7,124.24c.84.17,1.99-.18,2.2-.88.36-1.18.24-2.36.17-3.49,2.77,2.58,5.79,3.8,9.78,6.27-4.82.67-8.6-.36-12.15-1.9Z"/>
  <path class="cls-3" d="M346.97,123.05c-1.88-.72-3.71-1.43-5.19-2.81,1.92-.34,4.4-.92,6.4.58.12.69-1.09,2.05-1.21,2.22Z"/>
  <path class="cls-3" d="M339.95,119.26c-2.35-1.06-4.92-1.76-7.06-3.2,1.29.19,2.72-.28,4.53-.12,1.24.11,2.36,1.51,2.52,3.32Z"/>
  <path class="cls-16" d="M278.95,138c2.47-2.16,6.02.14,7.13-2.13.71.46,1.53.79,1.97,2.08l-9.1.05Z"/>
  <path class="cls-3" d="M351.12,119.97c-2.12.2-3.78-.79-6.01-2.51l.93-1.52c1.78,1.23,3.82,2.23,5.08,4.03Z"/>
  <path class="cls-3" d="M345.25,115.87c-1.38,1.25-2.32.6-3.22-.41-.99-1.11-1.73-1.98-1.79-3.37l5.02,3.78Z"/>
  <path class="cls-33" d="M279.97,386.22c-3.15,2.92-8.25,2.73-11.37.11l7.56-1.08c1-.08,2.06-.93,2.77-.52.45.26.83,1.01,1.04,1.48Z"/>
  <path class="cls-23" d="M438.12,211.89c-11.84-6.45-24.66-8.21-38.24-6.77-2.82.3-3.58-3.56-3.03-5.47.64-2.26,2.08-3.66,5.04-3.97,14.4-1.47,28.6.9,41.02,8.44,1.92,1.16,1.43,4.25.58,5.76-.71,1.26-3.35,3.12-5.37,2.01Z"/>
  <path class="cls-37" d="M457.76,229.31c0,3.26-2.18,5.13-4.41,5.32-2.56.21-4.94-1.82-5.01-4.82-.12-5.18-6.28-9.31-1.94-12.93,1.71-1.42,4.67-1.64,6.45.28,2.95,3.16,4.91,7.33,4.9,12.15Z"/>
</svg>